<svg xmlns="http://www.w3.org/2000/svg" viewBox="0 0 100 100" fill="none">
  <circle cx="50" cy="50" r="50" fill="#1a1510"/>
  <circle cx="50" cy="38" r="18" fill="#FFD700" opacity="0.2"/>
  <circle cx="50" cy="38" r="16" fill="#2a2015"/>
  <!-- face -->
  <circle cx="50" cy="38" r="14" fill="#e8c9a0"/>
  <!-- hair -->
  <path d="M34 34 C34 22, 66 22, 66 34 C66 28, 62 24, 50 24 C38 24, 34 28, 34 34Z" fill="#3a2510"/>
  <path d="M34 34 C32 42, 33 48, 36 44 C34 40, 34 36, 34 34Z" fill="#3a2510"/>
  <path d="M66 34 C68 42, 67 48, 64 44 C66 40, 66 36, 66 34Z" fill="#3a2510"/>
  <!-- glasses -->
  <rect x="39" y="34" width="10" height="7" rx="3" stroke="#FFD700" stroke-width="1.5" fill="none" opacity="0.7"/>
  <rect x="51" y="34" width="10" height="7" rx="3" stroke="#FFD700" stroke-width="1.5" fill="none" opacity="0.7"/>
  <line x1="49" y1="37" x2="51" y2="37" stroke="#FFD700" stroke-width="1" opacity="0.7"/>
  <!-- eyes -->
  <circle cx="44" cy="37" r="1.5" fill="#2a1505"/>
  <circle cx="56" cy="37" r="1.5" fill="#2a1505"/>
  <!-- smile -->
  <path d="M44 42 Q50 46 56 42" stroke="#c47a50" stroke-width="1.2" fill="none" stroke-linecap="round"/>
  <!-- body -->
  <path d="M35 60 C35 52, 40 50, 50 50 C60 50, 65 52, 65 60 L68 80 L32 80 Z" fill="#8B7355"/>
  <!-- blazer lapels -->
  <path d="M44 50 L50 60 L46 62 Z" fill="#FFD700" opacity="0.3"/>
  <path d="M56 50 L50 60 L54 62 Z" fill="#FFD700" opacity="0.3"/>
  <!-- tablet -->
  <rect x="58" y="56" width="10" height="14" rx="2" fill="#1a2a3a" stroke="#FFD700" stroke-width="0.8" opacity="0.5"/>
  <!-- glow ring -->
  <circle cx="50" cy="50" r="48" stroke="#FFD700" stroke-width="1.5" opacity="0.15"/>
</svg>
